<svg width="512" height="512" viewBox="0 0 512 512" fill="none" xmlns="http://www.w3.org/2000/svg">
<g clip-path="url(#clip0_301_9)">
<g filter="url(#filter0_d_301_9)">
<path d="M278.609 473.287C278.777 293.074 317.874 139.285 382.549 54.9033C382.844 54.518 382.503 53.9788 382.022 54.0428C299.49 65.0146 253.254 66.4006 173 53.9425C172.724 53.8997 172.462 54.0449 172.392 54.3148C154.426 123.5 117.769 338.461 277.705 473.696C278.057 473.994 278.608 473.748 278.609 473.287Z" fill="white"/>
</g>
<path d="M252.261 99.4484C252.794 98.374 252.356 97.0704 251.281 96.5369C250.207 96.0034 248.903 96.4419 248.37 97.5164L252.261 99.4484ZM276.279 476.515L276.977 478.572L281.091 477.177L280.394 475.12L276.279 476.515ZM248.37 97.5164C205.29 184.277 207.45 273.539 276.279 476.515L280.394 475.12C211.631 272.339 210.002 184.556 252.261 99.4484L248.37 97.5164Z" fill="url(#paint0_linear_301_9)"/>
<path d="M180.398 67.4688C230.189 78.2362 287.716 80.4034 360.768 70.7334" stroke="url(#paint1_linear_301_9)" stroke-width="5.43039" stroke-linecap="round"/>
</g>
<defs>
<filter id="filter0_d_301_9" x="146.924" y="41.9882" width="261.8" height="454.646" filterUnits="userSpaceOnUse" color-interpolation-filters="sRGB">
<feFlood flood-opacity="0" result="BackgroundImageFix"/>
<feColorMatrix in="SourceAlpha" type="matrix" values="0 0 0 0 0 0 0 0 0 0 0 0 0 0 0 0 0 0 127 0" result="hardAlpha"/>
<feOffset dx="8.68863" dy="5.43039"/>
<feGaussianBlur stdDeviation="8.68863"/>
<feComposite in2="hardAlpha" operator="out"/>
<feColorMatrix type="matrix" values="0 0 0 0 0.121569 0 0 0 0 0.447059 0 0 0 0 0.929412 0 0 0 0.08 0"/>
<feBlend mode="normal" in2="BackgroundImageFix" result="effect1_dropShadow_301_9"/>
<feBlend mode="normal" in="SourceGraphic" in2="effect1_dropShadow_301_9" result="shape"/>
</filter>
<linearGradient id="paint0_linear_301_9" x1="246.737" y1="98.4824" x2="246.737" y2="475.817" gradientUnits="userSpaceOnUse">
<stop offset="0.078125" stop-color="#1D70EC"/>
<stop offset="0.734375" stop-color="#77ACFC" stop-opacity="0"/>
</linearGradient>
<linearGradient id="paint1_linear_301_9" x1="180.398" y1="67.7407" x2="363.216" y2="69.3731" gradientUnits="userSpaceOnUse">
<stop stop-color="#1E71EC"/>
<stop offset="0.901042" stop-color="#84B3FA" stop-opacity="0"/>
</linearGradient>
<clipPath id="clip0_301_9">
<rect width="512" height="512" fill="white"/>
</clipPath>
</defs>
</svg>
